<svg width="311" height="300" viewBox="0 0 311 300" fill="none" xmlns="http://www.w3.org/2000/svg">
<path d="M155.018 299.287C240.633 299.287 310.037 262.984 310.037 218.202C310.037 173.42 240.633 137.117 155.018 137.117C69.4042 137.117 0 173.42 0 218.202C0 262.984 69.4042 299.287 155.018 299.287Z" fill="#F5F5F5"/>
<path d="M101.868 231.883L110.427 236.845C111.41 237.343 112.497 237.603 113.6 237.603C114.703 237.603 115.79 237.343 116.773 236.845L199.727 188.948C201.479 187.937 201.479 186.295 199.727 185.284L191.19 180.352C190.207 179.853 189.12 179.593 188.017 179.593C186.914 179.593 185.827 179.853 184.844 180.352L101.89 228.249C100.116 229.231 100.116 230.872 101.868 231.883Z" fill="#E0E0E0"/>
<path d="M259.07 248.394C280.014 248.394 296.993 239.099 296.993 227.633C296.993 216.167 280.014 206.873 259.07 206.873C238.126 206.873 221.147 216.167 221.147 227.633C221.147 239.099 238.126 248.394 259.07 248.394Z" fill="#E0E0E0"/>
<path d="M25.2673 247.719C37.1534 253.384 56.4263 253.384 68.3125 247.719C80.1986 242.055 80.1986 232.873 68.3125 227.201C56.4263 221.529 37.1534 221.536 25.2673 227.201C13.3811 232.865 13.3811 242.055 25.2673 247.719Z" fill="#E0E0E0"/>
<path d="M197.507 11.6009C197.302 10.1353 196.122 9.59302 194.7 10.4211L116.671 55.4669C115.845 56.0067 115.159 56.733 114.666 57.5872C114.173 58.4414 113.889 59.3994 113.835 60.384V232.594C113.835 234.258 114.919 235.02 116.312 234.404C115.467 234.765 114.553 234.936 113.636 234.905C112.718 234.875 111.818 234.644 110.999 234.228L107.745 232.36C106.918 231.822 106.229 231.096 105.735 230.241C105.241 229.387 104.955 228.428 104.902 227.443V55.2397C104.954 54.2538 105.238 53.2942 105.733 52.4395C106.227 51.5849 106.916 50.8594 107.745 50.3226L185.767 5.27677C186.645 4.82897 187.617 4.59552 188.603 4.59552C189.589 4.59552 190.561 4.82897 191.439 5.27677L194.7 7.13811C195.46 7.6381 196.103 8.29519 196.588 9.06505C197.072 9.8349 197.385 10.6996 197.507 11.6009Z" fill="#455A64"/>
<path d="M194.7 10.4064L116.671 55.4669C115.845 56.0067 115.159 56.733 114.666 57.5872C114.173 58.4414 113.889 59.3995 113.835 60.384V232.594C113.835 234.397 115.11 235.137 116.671 234.228L194.7 189.153C195.525 188.613 196.211 187.887 196.704 187.033C197.196 186.178 197.481 185.221 197.536 184.236V12.0259C197.536 10.2526 196.261 9.51241 194.7 10.4064ZM193.447 168.012C193.447 169.558 192.362 170.54 191.014 171.317L120.071 212.273C118.73 213.05 117.638 212.427 117.638 210.874V76.8283C117.685 75.9834 117.93 75.1614 118.352 74.4283C118.775 73.6952 119.363 73.0715 120.071 72.6073L191.036 31.6579C192.384 30.8811 193.469 31.5114 193.469 33.0576L193.447 168.012Z" fill="#37474F"/>
<path d="M116.29 234.375C115.445 234.735 114.531 234.906 113.614 234.876C112.696 234.846 111.796 234.615 110.977 234.199L107.723 232.33C106.896 231.791 106.208 231.065 105.714 230.211C105.22 229.357 104.935 228.398 104.88 227.413V55.2397C104.916 54.2485 105.204 53.2829 105.715 52.433L114.648 57.5627C114.138 58.4104 113.85 59.3734 113.813 60.362V232.572C113.835 234.228 114.919 234.99 116.29 234.375Z" fill="#263238"/>
<path d="M155.685 36.7363C156.733 36.1281 157.591 36.619 157.591 37.8355C157.553 38.4959 157.361 39.1383 157.03 39.711C156.699 40.2837 156.239 40.7708 155.685 41.1331C154.637 41.734 153.78 41.2431 153.78 40.0339C153.817 39.3734 154.009 38.7308 154.34 38.158C154.671 37.5852 155.132 37.0982 155.685 36.7363Z" fill="#263238"/>
<path d="M154.396 207.532C153.923 207.538 153.457 207.416 153.047 207.18C152.08 206.623 151.582 205.48 151.582 203.963C151.672 202.348 152.141 200.778 152.951 199.377C153.761 197.977 154.888 196.787 156.242 195.902C157.554 195.17 158.814 195.03 159.774 195.587C160.734 196.144 161.24 197.287 161.24 198.804C161.151 200.42 160.683 201.991 159.873 203.392C159.063 204.792 157.935 205.982 156.579 206.865C155.923 207.276 155.17 207.506 154.396 207.532ZM158.397 195.961C157.752 195.989 157.126 196.184 156.579 196.525C155.331 197.342 154.292 198.441 153.546 199.733C152.801 201.025 152.369 202.474 152.285 203.963C152.285 205.209 152.681 206.125 153.414 206.55C154.146 206.975 155.136 206.858 156.213 206.235C157.462 205.417 158.502 204.318 159.247 203.024C159.993 201.731 160.425 200.28 160.507 198.79C160.507 197.544 160.111 196.628 159.379 196.21C159.068 196.037 158.715 195.953 158.36 195.968L158.397 195.961Z" fill="#E6E6E6"/>
<path d="M148.343 48.3073L162.999 39.8287C163.878 39.3231 164.589 39.6822 164.589 40.6275C164.55 41.1614 164.386 41.6785 164.11 42.137C163.833 42.5954 163.453 42.9821 162.999 43.2656L148.343 51.7442C147.463 52.2499 146.752 51.8908 146.752 50.9455C146.791 50.4116 146.955 49.8944 147.232 49.436C147.508 48.9776 147.889 48.5909 148.343 48.3073Z" fill="#263238"/>
<path d="M193.447 168.026C193.447 169.573 192.362 170.555 191.014 171.331L120.071 212.288C118.73 213.065 117.638 212.442 117.638 210.888V76.8283C117.685 75.9834 117.93 75.1614 118.352 74.4283C118.775 73.6952 119.363 73.0715 120.071 72.6073L191.036 31.6579C192.384 30.8811 193.469 31.5114 193.469 33.0576L193.447 168.026Z" fill="#4169E1"/>
<path opacity="0.75" d="M193.447 168.026C193.447 169.573 192.362 170.555 191.014 171.331L120.071 212.288C118.73 213.065 117.638 212.442 117.638 210.888V76.8283C117.685 75.9834 117.93 75.1614 118.352 74.4283C118.775 73.6952 119.363 73.0715 120.071 72.6073L191.036 31.6579C192.384 30.8811 193.469 31.5114 193.469 33.0576L193.447 168.026Z" fill="white"/>
<path d="M191.036 31.6579L120.093 72.6073C119.385 73.0715 118.797 73.6952 118.374 74.4283C117.952 75.1614 117.707 75.9834 117.66 76.8283V85.8858L193.469 42.1078V33.0576C193.447 31.5114 192.362 30.8811 191.036 31.6579Z" fill="#4169E1"/>
<path d="M117.638 201.003V210.888C117.638 212.442 118.73 213.087 120.071 212.288L191.036 171.331C192.384 170.555 193.469 169.573 193.469 168.026V157.239L117.638 201.003Z" fill="#4169E1"/>
<path opacity="0.15" d="M123.874 201.157L176.886 170.525C178.109 169.792 179.084 170.393 179.084 171.808C179.044 172.576 178.824 173.324 178.442 173.993C178.06 174.661 177.527 175.23 176.886 175.655L123.874 206.286C122.65 207.019 121.676 206.418 121.676 205.004C121.716 204.236 121.936 203.487 122.318 202.819C122.699 202.151 123.233 201.582 123.874 201.157Z" fill="black"/>
<path d="M182.887 166.231V167.792C182.887 168.144 183.07 168.386 183.29 168.334L185.789 167.755C186.009 167.704 186.009 167.829 185.789 168.034L183.29 170.335C183.04 170.61 182.897 170.967 182.887 171.339V172.9C182.887 173.251 183.063 173.332 183.276 173.083L189.204 166.15C189.409 165.901 189.409 165.696 189.204 165.696L183.276 165.601C183.063 165.601 182.887 165.879 182.887 166.231Z" fill="#455A64"/>
<path d="M134.17 110.545L130.403 108.346C130.329 108.316 130.267 108.262 130.228 108.192L129.539 106.983L131.737 105.694L131.671 105.884L134.17 110.545Z" fill="#E0E0E0"/>
<path d="M131.429 105.899L134.038 110.413C134.071 110.487 134.126 110.549 134.196 110.591C134.266 110.632 134.347 110.65 134.428 110.643C134.509 110.635 134.586 110.603 134.647 110.55C134.709 110.497 134.752 110.426 134.771 110.347L137.526 102.389L131.429 105.899Z" fill="#F0F0F0"/>
<path d="M158.683 73.2009C158.648 72.568 158.465 71.9522 158.148 71.4034C157.831 70.8546 157.389 70.3884 156.858 70.0425C156.291 69.7501 155.663 69.5975 155.026 69.5975C154.388 69.5975 153.76 69.7501 153.194 70.0425L123.72 87.0583C123.19 87.4051 122.749 87.8715 122.432 88.4201C122.115 88.9687 121.931 89.5841 121.896 90.2167V105.151C121.93 105.784 122.113 106.4 122.43 106.949C122.747 107.498 123.189 107.964 123.72 108.31C124.287 108.602 124.915 108.755 125.552 108.755C126.19 108.755 126.818 108.602 127.384 108.31L157.048 91.1767C158.69 90.246 158.705 89.308 158.705 88.1428L158.683 73.2009Z" fill="#F0F0F0"/>
<path d="M121.895 105.151C121.93 105.784 122.113 106.4 122.43 106.949C122.747 107.498 123.189 107.964 123.72 108.31C124.232 108.57 124.793 108.718 125.367 108.745C125.941 108.772 126.513 108.676 127.047 108.464C126.19 108.793 125.538 108.302 125.538 107.262V92.3199C125.557 91.6852 125.742 91.0665 126.073 90.5245L122.408 88.4213C122.08 88.9645 121.896 89.5825 121.874 90.2167L121.895 105.151Z" fill="#E0E0E0"/>
<path d="M158.617 72.6953C158.404 71.9624 157.701 71.6767 156.858 72.1603L127.362 89.1761C126.822 89.5097 126.38 89.9799 126.08 90.5392L122.416 88.436C122.719 87.881 123.161 87.4139 123.698 87.0803L153.194 70.0645C153.761 69.7755 154.389 69.6249 155.026 69.6249C155.663 69.6249 156.29 69.7755 156.858 70.0645C157.315 70.3594 157.707 70.745 158.01 71.1975C158.312 71.65 158.519 72.1598 158.617 72.6953Z" fill="#FAFAFA"/>
<path d="M130.433 95.8813L151.508 83.6874C152.117 83.3356 152.608 83.4968 152.608 84.0464C152.564 84.3855 152.442 84.7098 152.251 84.9935C152.06 85.2772 151.806 85.5124 151.508 85.6806L130.433 97.8745C129.825 98.2263 129.334 98.0651 129.334 97.5155C129.377 97.1764 129.499 96.8521 129.69 96.5684C129.881 96.2847 130.135 96.0495 130.433 95.8813Z" fill="#455A64"/>
<path d="M130.433 100.205L145.089 91.6897C145.704 91.3379 146.195 91.4992 146.195 92.0488C146.151 92.3885 146.028 92.7133 145.836 92.997C145.644 93.2807 145.388 93.5156 145.089 93.6829L130.433 102.198C129.825 102.55 129.334 102.389 129.334 101.839C129.377 101.5 129.499 101.176 129.69 100.892C129.881 100.608 130.135 100.373 130.433 100.205Z" fill="#455A64"/>
<path d="M130.433 91.5724L151.508 79.3492C152.117 78.9974 152.608 79.1586 152.608 79.7082C152.564 80.0473 152.442 80.3716 152.251 80.6553C152.06 80.939 151.806 81.1742 151.508 81.3424L130.433 93.5657C129.825 93.9174 129.334 93.7562 129.334 93.2066C129.377 92.8675 129.499 92.5432 129.69 92.2595C129.881 91.9758 130.135 91.7406 130.433 91.5724Z" fill="#455A64"/>
<path d="M130.169 112.135L127.861 110.816C127.465 110.636 127.028 110.564 126.596 110.608C126.163 110.651 125.75 110.809 125.398 111.065C124.44 111.661 123.638 112.478 123.061 113.447C122.353 114.543 121.951 115.808 121.895 117.111C121.851 117.545 121.923 117.984 122.103 118.381C122.283 118.779 122.565 119.122 122.921 119.375L125.23 120.702C125.63 120.905 126.08 120.993 126.528 120.956C126.976 120.918 127.404 120.757 127.765 120.489C128.784 119.825 129.632 118.931 130.241 117.878C130.85 116.825 131.202 115.643 131.268 114.429C131.315 113.982 131.237 113.531 131.043 113.126C130.849 112.721 130.546 112.378 130.169 112.135Z" fill="#455A64"/>
<path d="M127.861 110.801C127.465 110.621 127.028 110.549 126.596 110.593C126.163 110.637 125.75 110.795 125.398 111.05C124.442 111.648 123.641 112.464 123.061 113.432C122.353 114.528 121.951 115.793 121.895 117.096C121.849 117.531 121.92 117.97 122.101 118.368C122.281 118.766 122.564 119.109 122.921 119.361L125.208 120.672C124.881 120.412 124.624 120.076 124.459 119.692C124.294 119.308 124.226 118.89 124.262 118.474C124.33 117.259 124.683 116.077 125.291 115.023C125.899 113.969 126.747 113.072 127.765 112.406C128.106 112.166 128.501 112.013 128.915 111.96C129.329 111.908 129.749 111.958 130.14 112.106L127.861 110.801Z" fill="#37474F"/>
<path d="M127.619 113.483C128.264 113.11 128.784 113.41 128.784 114.15C128.762 114.555 128.646 114.949 128.443 115.301C128.241 115.652 127.958 115.951 127.619 116.173C126.974 116.539 126.454 116.239 126.454 115.499C126.474 115.094 126.59 114.701 126.793 114.35C126.995 114 127.279 113.703 127.619 113.483Z" fill="white"/>
<path d="M127.773 119.859C128.678 119.286 129.416 118.485 129.912 117.536V117.441C129.912 116.217 129.055 115.726 128 116.334L127.34 116.715C126.809 117.063 126.362 117.527 126.034 118.071C125.705 118.615 125.503 119.226 125.442 119.859C125.493 119.916 125.55 119.967 125.611 120.013C125.949 120.194 126.331 120.276 126.714 120.248C127.097 120.221 127.464 120.086 127.773 119.859Z" fill="white"/>
<path d="M134.17 164.758L130.403 162.56C130.331 162.527 130.269 162.474 130.228 162.406L129.539 161.197L131.737 159.9L131.671 160.097L134.17 164.758Z" fill="#E0E0E0"/>
<path d="M131.429 160.112L134.038 164.626C134.071 164.7 134.126 164.763 134.196 164.804C134.266 164.845 134.347 164.863 134.428 164.856C134.509 164.849 134.586 164.816 134.647 164.763C134.709 164.71 134.752 164.639 134.771 164.56L137.526 156.602L131.429 160.112Z" fill="#F0F0F0"/>
<path d="M158.683 127.414C158.648 126.781 158.465 126.165 158.148 125.617C157.831 125.068 157.389 124.602 156.858 124.256C156.29 123.967 155.663 123.816 155.026 123.816C154.389 123.816 153.761 123.967 153.194 124.256L123.698 141.272C123.167 141.617 122.725 142.084 122.408 142.632C122.091 143.181 121.908 143.797 121.874 144.43V159.365C121.909 159.997 122.093 160.613 122.41 161.161C122.727 161.71 123.168 162.176 123.698 162.523C124.265 162.815 124.893 162.968 125.53 162.968C126.168 162.968 126.796 162.815 127.362 162.523L157.026 145.39C158.668 144.452 158.683 143.514 158.683 142.356V127.414Z" fill="#F0F0F0"/>
<path d="M121.895 159.365C121.931 159.997 122.115 160.613 122.432 161.161C122.749 161.71 123.19 162.176 123.72 162.523C124.232 162.783 124.793 162.932 125.367 162.958C125.941 162.985 126.513 162.889 127.047 162.677C126.19 162.999 125.538 162.516 125.538 161.475V146.526C125.56 145.892 125.744 145.274 126.073 144.73L122.408 142.635C122.079 143.177 121.895 143.796 121.874 144.43L121.895 159.365Z" fill="#E0E0E0"/>
<path d="M158.617 126.923C158.404 126.146 157.701 125.905 156.858 126.388L127.362 143.404C126.821 143.736 126.378 144.206 126.08 144.767L122.416 142.664C122.719 142.109 123.161 141.642 123.698 141.308L153.194 124.285C153.762 123.999 154.39 123.851 155.026 123.851C155.662 123.851 156.289 123.999 156.858 124.285C157.316 124.581 157.708 124.968 158.01 125.422C158.313 125.876 158.519 126.387 158.617 126.923Z" fill="#FAFAFA"/>
<path d="M130.433 150.095L151.508 137.864C152.117 137.512 152.608 137.673 152.608 138.23C152.563 138.568 152.44 138.891 152.25 139.173C152.059 139.456 151.805 139.69 151.508 139.857L130.433 152.08C129.825 152.44 129.334 152.278 129.334 151.721C129.378 151.384 129.501 151.061 129.691 150.778C129.882 150.496 130.136 150.262 130.433 150.095Z" fill="#455A64"/>
<path d="M130.433 154.411L145.089 145.903C145.704 145.551 146.195 145.712 146.195 146.262C146.151 146.602 146.028 146.926 145.836 147.21C145.644 147.494 145.388 147.729 145.089 147.896L130.433 156.404C129.825 156.756 129.334 156.595 129.334 156.045C129.377 155.706 129.499 155.382 129.69 155.098C129.881 154.814 130.135 154.579 130.433 154.411Z" fill="#455A64"/>
<path d="M130.433 145.786L151.508 133.562C152.117 133.203 152.608 133.365 152.608 133.921C152.564 134.261 152.442 134.585 152.251 134.868C152.06 135.152 151.806 135.387 151.508 135.556L130.433 147.779C129.825 148.131 129.334 147.969 129.334 147.42C129.377 147.081 129.499 146.756 129.69 146.473C129.881 146.189 130.135 145.954 130.433 145.786Z" fill="#455A64"/>
<path d="M130.169 166.348L127.861 165.029C127.465 164.849 127.029 164.777 126.596 164.821C126.163 164.865 125.75 165.022 125.399 165.278C124.44 165.874 123.639 166.691 123.061 167.66C122.353 168.756 121.951 170.021 121.896 171.324C121.851 171.758 121.923 172.197 122.103 172.595C122.283 172.993 122.566 173.335 122.922 173.588L125.23 174.907C125.63 175.114 126.079 175.204 126.527 175.168C126.975 175.132 127.404 174.97 127.766 174.702C128.786 174.038 129.634 173.142 130.243 172.088C130.852 171.033 131.203 169.85 131.268 168.635C131.315 168.189 131.237 167.739 131.043 167.336C130.849 166.932 130.546 166.59 130.169 166.348Z" fill="#455A64"/>
<path d="M127.861 165.029C127.465 164.849 127.028 164.777 126.596 164.821C126.163 164.865 125.75 165.022 125.398 165.278C124.442 165.876 123.641 166.692 123.061 167.66C122.353 168.756 121.951 170.021 121.895 171.324C121.849 171.759 121.92 172.198 122.101 172.596C122.281 172.994 122.564 173.336 122.921 173.588L125.208 174.893C124.879 174.634 124.621 174.298 124.456 173.914C124.291 173.53 124.224 173.111 124.262 172.694C124.313 171.39 124.716 170.124 125.428 169.03C126.005 168.059 126.807 167.24 127.765 166.641C128.106 166.401 128.501 166.248 128.915 166.195C129.329 166.143 129.749 166.193 130.14 166.341L127.861 165.029Z" fill="#37474F"/>
<path d="M127.619 167.689C128.264 167.323 128.784 167.623 128.784 168.363C128.762 168.767 128.646 169.161 128.443 169.511C128.241 169.861 127.958 170.158 127.619 170.379C126.974 170.752 126.454 170.452 126.454 169.712C126.475 169.307 126.592 168.913 126.794 168.561C126.997 168.21 127.279 167.911 127.619 167.689Z" fill="white"/>
<path d="M127.773 174.072C128.678 173.496 129.416 172.693 129.912 171.742V171.625C129.912 170.401 129.055 169.91 128 170.518L127.34 170.899C126.809 171.246 126.362 171.708 126.034 172.251C125.705 172.794 125.503 173.404 125.442 174.035C125.491 174.096 125.548 174.151 125.611 174.197C125.946 174.382 126.327 174.469 126.71 174.447C127.092 174.425 127.461 174.295 127.773 174.072Z" fill="white"/>
<path d="M178.249 113.535L174.482 111.336C174.408 111.306 174.346 111.252 174.306 111.182L173.61 109.973L175.852 108.683L175.779 108.881L178.249 113.535Z" fill="#4169E1"/>
<g opacity="0.1">
<path d="M178.249 113.535L174.482 111.336C174.408 111.306 174.346 111.252 174.306 111.182L173.61 109.973L175.852 108.683L175.779 108.881L178.249 113.535Z" fill="black"/>
</g>
<path d="M175.508 108.889L178.117 113.403C178.149 113.477 178.205 113.539 178.275 113.58C178.345 113.622 178.426 113.64 178.507 113.633C178.588 113.625 178.664 113.593 178.726 113.54C178.787 113.487 178.83 113.416 178.849 113.337L181.605 105.386L175.508 108.889Z" fill="#4169E1"/>
<path d="M189.783 83.724C189.749 83.0919 189.567 82.4768 189.251 81.9281C188.935 81.3795 188.495 80.9127 187.966 80.5656C187.398 80.2767 186.77 80.126 186.134 80.126C185.497 80.126 184.869 80.2767 184.302 80.5656L154.828 97.6107C154.297 97.9546 153.854 98.4194 153.537 98.9671C153.22 99.5148 153.037 100.13 153.003 100.762V115.704C153.037 116.336 153.22 116.951 153.537 117.498C153.854 118.046 154.297 118.511 154.828 118.855C155.395 119.144 156.023 119.294 156.66 119.294C157.297 119.294 157.925 119.144 158.492 118.855L188.105 101.692C189.739 100.762 189.754 99.8238 189.754 98.6586L189.783 83.724Z" fill="#4169E1"/>
<path d="M162.808 105.672L183.877 93.4484C184.485 93.0967 184.983 93.2579 184.983 93.8075C184.939 94.1473 184.816 94.472 184.623 94.7557C184.431 95.0394 184.176 95.2743 183.877 95.4416L162.808 107.665C162.2 108.017 161.702 107.855 161.702 107.306C161.746 106.966 161.869 106.641 162.061 106.358C162.253 106.074 162.509 105.839 162.808 105.672Z" fill="#455A64"/>
<path d="M169.191 106.236L183.847 97.7207C184.455 97.3689 184.954 97.5302 184.954 98.0798C184.909 98.4195 184.786 98.7443 184.594 99.028C184.402 99.3117 184.146 99.5466 183.847 99.7139L169.191 108.229C168.583 108.581 168.084 108.42 168.084 107.87C168.129 107.53 168.252 107.206 168.444 106.922C168.636 106.638 168.892 106.403 169.191 106.236Z" fill="#455A64"/>
<path d="M162.808 101.363L183.877 89.1395C184.485 88.7878 184.983 88.949 184.983 89.4986C184.939 89.8384 184.816 90.1631 184.623 90.4468C184.431 90.7306 184.176 90.9654 183.877 91.1328L162.808 103.356C162.2 103.708 161.702 103.547 161.702 102.997C161.746 102.657 161.869 102.332 162.061 102.049C162.253 101.765 162.509 101.53 162.808 101.363Z" fill="#455A64"/>
<path opacity="0.1" d="M153.003 115.682C153.037 116.314 153.22 116.929 153.537 117.477C153.854 118.024 154.297 118.489 154.828 118.833C155.342 119.09 155.905 119.236 156.479 119.263C157.053 119.289 157.626 119.195 158.162 118.987C157.305 119.309 156.653 118.818 156.653 117.778V102.843C156.674 102.209 156.859 101.59 157.188 101.048L153.524 98.9445C153.195 99.4877 153.011 100.106 152.989 100.74L153.003 115.682Z" fill="black"/>
<path opacity="0.3" d="M189.724 83.2037C189.512 82.4343 188.808 82.1851 187.966 82.6688L158.463 99.6846C157.924 100.02 157.483 100.49 157.18 101.048L153.516 98.9518C153.819 98.3941 154.26 97.9245 154.799 97.5888L184.287 80.5729C184.855 80.2852 185.482 80.1352 186.119 80.1352C186.756 80.1352 187.383 80.2852 187.951 80.5729C188.41 80.8677 188.804 81.2531 189.109 81.7054C189.414 82.1578 189.623 82.6676 189.724 83.2037Z" fill="white"/>
<path d="M188.676 107.87L186.375 106.551C185.98 106.371 185.543 106.299 185.111 106.343C184.678 106.386 184.265 106.544 183.913 106.8C182.953 107.394 182.151 108.211 181.575 109.182C180.866 110.277 180.464 111.542 180.41 112.846C180.364 113.28 180.434 113.718 180.613 114.116C180.792 114.514 181.074 114.857 181.429 115.11L183.745 116.437C184.145 116.64 184.595 116.728 185.043 116.691C185.49 116.653 185.919 116.492 186.28 116.224C187.3 115.56 188.149 114.664 188.758 113.609C189.366 112.555 189.717 111.372 189.783 110.156C189.83 109.71 189.751 109.26 189.555 108.856C189.36 108.452 189.055 108.11 188.676 107.87Z" fill="#455A64"/>
<path d="M186.375 106.558C185.98 106.378 185.543 106.306 185.111 106.35C184.678 106.394 184.265 106.552 183.913 106.807C182.953 107.401 182.151 108.218 181.575 109.189C180.866 110.284 180.464 111.55 180.41 112.853C180.364 113.287 180.434 113.725 180.613 114.123C180.792 114.521 181.074 114.864 181.429 115.118L183.715 116.429C183.391 116.168 183.135 115.83 182.972 115.447C182.808 115.064 182.741 114.646 182.777 114.231C182.829 112.927 183.232 111.661 183.942 110.567C184.518 109.594 185.32 108.774 186.28 108.178C186.621 107.937 187.016 107.784 187.43 107.732C187.844 107.679 188.264 107.729 188.654 107.877L186.375 106.558Z" fill="#37474F"/>
<path d="M186.082 109.336C186.72 108.962 187.247 109.27 187.247 110.01C187.225 110.414 187.108 110.806 186.905 111.156C186.703 111.506 186.421 111.804 186.082 112.025C185.437 112.399 184.917 112.098 184.917 111.351C184.939 110.947 185.056 110.554 185.259 110.204C185.461 109.854 185.743 109.556 186.082 109.336Z" fill="#4169E1"/>
<path d="M186.229 115.726C187.138 115.152 187.879 114.348 188.376 113.395V113.307C188.376 112.084 187.519 111.593 186.463 112.201L185.804 112.582C185.272 112.93 184.826 113.392 184.496 113.934C184.166 114.477 183.962 115.087 183.898 115.718C183.954 115.776 184.012 115.83 184.074 115.88C184.411 116.061 184.792 116.143 185.174 116.116C185.555 116.088 185.921 115.953 186.229 115.726Z" fill="#4169E1"/>
<path d="M177.171 155.107L175.053 153.883C175.032 153.876 175.013 153.864 174.997 153.849C174.98 153.834 174.967 153.816 174.958 153.795L174.562 153.114L175.823 152.381L175.786 152.498L177.171 155.107Z" fill="#4169E1"/>
<g opacity="0.1">
<path d="M177.171 155.107L175.053 153.883C175.032 153.876 175.013 153.864 174.997 153.849C174.98 153.834 174.967 153.816 174.958 153.795L174.562 153.114L175.823 152.381L175.786 152.498L177.171 155.107Z" fill="black"/>
</g>
<path d="M175.647 152.498L177.113 155.034C177.134 155.07 177.165 155.099 177.202 155.118C177.239 155.136 177.281 155.144 177.322 155.141C177.364 155.137 177.403 155.121 177.436 155.096C177.469 155.07 177.494 155.036 177.508 154.997L179.055 150.527L175.647 152.498Z" fill="#4169E1"/>
<path d="M187.116 139.872C187.08 139.24 186.896 138.626 186.579 138.079C186.262 137.531 185.821 137.066 185.291 136.721C184.723 136.432 184.096 136.281 183.459 136.281C182.822 136.281 182.194 136.432 181.627 136.721L171.184 142.744C170.655 143.09 170.215 143.555 169.899 144.103C169.583 144.65 169.401 145.264 169.367 145.896V149.882C169.4 150.514 169.582 151.13 169.897 151.679C170.213 152.228 170.654 152.694 171.184 153.04C171.751 153.333 172.379 153.485 173.016 153.485C173.654 153.485 174.282 153.333 174.848 153.04L185.459 146.9C187.101 145.969 187.116 145.031 187.116 143.873V139.872Z" fill="#4169E1"/>
<path opacity="0.1" d="M169.389 149.882C169.422 150.514 169.604 151.13 169.919 151.679C170.235 152.228 170.676 152.694 171.206 153.04C171.719 153.301 172.282 153.449 172.857 153.476C173.432 153.502 174.006 153.406 174.541 153.194C173.683 153.524 173.031 153.033 173.031 151.993V148.006C173.054 147.372 173.238 146.754 173.566 146.211L169.902 144.107C169.574 144.651 169.39 145.269 169.367 145.903L169.389 149.882Z" fill="black"/>
<path opacity="0.3" d="M187.05 139.381C186.837 138.604 186.134 138.362 185.291 138.846L174.848 144.87C174.309 145.2 173.866 145.668 173.566 146.225L169.902 144.129C170.208 143.575 170.649 143.106 171.184 142.766L181.627 136.743C182.195 136.457 182.823 136.309 183.459 136.309C184.095 136.309 184.722 136.457 185.291 136.743C185.749 137.039 186.141 137.426 186.443 137.88C186.746 138.334 186.952 138.844 187.05 139.381Z" fill="white"/>
<path d="M177.061 146.877C176.771 147.067 176.529 147.322 176.355 147.623C176.182 147.923 176.083 148.26 176.065 148.607C176.065 149.237 176.504 149.501 177.061 149.179C177.351 148.99 177.592 148.736 177.766 148.437C177.939 148.137 178.039 147.802 178.058 147.456C178.058 146.819 177.611 146.562 177.061 146.877Z" fill="#455A64"/>
<path d="M180.213 145.053C179.922 145.242 179.68 145.497 179.507 145.798C179.333 146.098 179.234 146.436 179.216 146.782C179.216 147.412 179.663 147.676 180.213 147.354C180.502 147.165 180.744 146.911 180.917 146.612C181.09 146.313 181.19 145.977 181.209 145.632C181.209 144.994 180.777 144.738 180.213 145.053Z" fill="#455A64"/>
<path d="M183.371 143.228C183.081 143.417 182.84 143.671 182.667 143.97C182.493 144.269 182.393 144.605 182.374 144.95C182.374 145.588 182.821 145.844 183.371 145.529C183.665 145.338 183.908 145.079 184.082 144.774C184.255 144.47 184.353 144.128 184.368 143.778C184.368 143.17 183.921 142.913 183.371 143.228Z" fill="#455A64"/>
<path d="M188.676 150.175L186.375 148.856C185.98 148.676 185.543 148.604 185.111 148.648C184.678 148.692 184.265 148.849 183.913 149.105C182.953 149.699 182.151 150.516 181.575 151.487C180.866 152.582 180.464 153.847 180.41 155.151C180.364 155.585 180.434 156.023 180.613 156.421C180.792 156.819 181.074 157.162 181.429 157.415L183.745 158.742C184.145 158.945 184.595 159.033 185.043 158.996C185.49 158.958 185.919 158.797 186.28 158.529C187.299 157.865 188.147 156.971 188.756 155.918C189.365 154.865 189.716 153.683 189.783 152.469C189.83 152.021 189.752 151.57 189.556 151.165C189.361 150.759 189.056 150.417 188.676 150.175Z" fill="#455A64"/>
<path d="M186.375 148.856C185.98 148.676 185.543 148.604 185.111 148.648C184.678 148.692 184.265 148.849 183.913 149.105C182.953 149.699 182.151 150.516 181.575 151.487C180.866 152.582 180.464 153.847 180.41 155.151C180.364 155.585 180.434 156.023 180.613 156.421C180.792 156.819 181.074 157.162 181.429 157.415L183.715 158.727C183.391 158.466 183.135 158.128 182.972 157.745C182.808 157.362 182.741 156.944 182.777 156.529C182.829 155.225 183.232 153.959 183.942 152.865C184.52 151.893 185.322 151.074 186.28 150.476C186.621 150.235 187.016 150.082 187.43 150.03C187.844 149.977 188.264 150.027 188.654 150.175L186.375 148.856Z" fill="#37474F"/>
<path d="M186.082 151.641C186.72 151.274 187.247 151.575 187.247 152.315C187.225 152.719 187.108 153.111 186.905 153.462C186.703 153.812 186.421 154.109 186.082 154.33C185.437 154.704 184.917 154.403 184.917 153.656C184.939 153.252 185.056 152.859 185.259 152.509C185.461 152.159 185.743 151.861 186.082 151.641Z" fill="#4169E1"/>
<path d="M186.229 158.024C187.138 157.45 187.879 156.646 188.376 155.693V155.605C188.376 154.382 187.519 153.891 186.463 154.499L185.804 154.88C185.272 155.227 184.826 155.689 184.496 156.232C184.166 156.775 183.962 157.384 183.898 158.016C183.954 158.074 184.012 158.128 184.074 158.177C184.411 158.359 184.792 158.441 185.174 158.414C185.555 158.386 185.921 158.251 186.229 158.024Z" fill="#4169E1"/>
<path d="M252.292 123.332L248.525 121.134C248.452 121.099 248.39 121.043 248.349 120.973L247.66 119.764L249.895 118.474L249.822 118.672L252.292 123.332Z" fill="#E0E0E0"/>
<path d="M249.551 118.686L252.16 123.2C252.193 123.275 252.248 123.337 252.318 123.378C252.388 123.419 252.469 123.438 252.55 123.43C252.631 123.423 252.707 123.391 252.769 123.338C252.83 123.284 252.873 123.213 252.893 123.135L255.619 115.198L249.551 118.686Z" fill="#F0F0F0"/>
<path d="M276.775 85.9884C276.739 85.3558 276.556 84.7404 276.239 84.1918C275.922 83.6432 275.48 83.1768 274.95 82.83C274.384 82.5376 273.756 82.385 273.118 82.385C272.481 82.385 271.852 82.5376 271.286 82.83L241.79 99.8385C241.26 100.185 240.819 100.652 240.502 101.2C240.185 101.749 240.001 102.364 239.966 102.997V117.932C240 118.564 240.183 119.18 240.5 119.729C240.817 120.278 241.259 120.744 241.79 121.09C242.358 121.379 242.986 121.53 243.622 121.53C244.259 121.53 244.887 121.379 245.455 121.09L275.119 103.95C276.753 103.019 276.775 102.081 276.775 100.916V85.9884Z" fill="#F0F0F0"/>
<path d="M240.017 117.939C240.051 118.572 240.235 119.188 240.552 119.736C240.869 120.285 241.311 120.751 241.842 121.097C242.355 121.355 242.916 121.501 243.49 121.526C244.063 121.551 244.635 121.455 245.169 121.244C244.311 121.574 243.659 121.083 243.659 120.042V105.107C243.681 104.473 243.865 103.855 244.194 103.312L240.53 101.209C240.202 101.752 240.018 102.37 239.995 103.004L240.017 117.939Z" fill="#E0E0E0"/>
<path d="M276.775 85.4681C276.562 84.6986 275.859 84.4495 275.016 84.9331L245.484 101.949C244.944 102.283 244.501 102.753 244.201 103.312L240.537 101.216C240.84 100.658 241.282 100.189 241.82 99.8531L271.308 82.8373C271.876 82.5495 272.503 82.3995 273.14 82.3995C273.777 82.3995 274.404 82.5495 274.972 82.8373C275.437 83.1291 275.836 83.5132 276.146 83.9657C276.456 84.4182 276.67 84.9296 276.775 85.4681Z" fill="#F5F5F5"/>
<path d="M248.554 108.669L269.623 96.4456C270.238 96.0939 270.729 96.2551 270.729 96.8047C270.685 97.1445 270.562 97.4692 270.37 97.7529C270.177 98.0366 269.922 98.2715 269.623 98.4388L248.554 110.662C247.946 111.014 247.455 110.853 247.455 110.303C247.499 109.964 247.621 109.64 247.811 109.356C248.002 109.072 248.257 108.837 248.554 108.669Z" fill="#455A64"/>
<path d="M248.554 113L263.21 104.484C263.819 104.133 264.317 104.294 264.317 104.844C264.273 105.183 264.15 105.508 263.957 105.792C263.765 106.076 263.51 106.31 263.21 106.478L248.554 114.993C247.946 115.345 247.455 115.183 247.455 114.634C247.499 114.295 247.621 113.971 247.811 113.687C248.002 113.403 248.257 113.168 248.554 113Z" fill="#455A64"/>
<path d="M248.554 104.36L269.623 92.1366C270.238 91.7849 270.729 91.9461 270.729 92.4957C270.685 92.8355 270.562 93.1602 270.37 93.4439C270.177 93.7277 269.922 93.9626 269.623 94.1299L248.554 106.353C247.946 106.705 247.455 106.544 247.455 105.994C247.499 105.655 247.621 105.331 247.811 105.047C248.002 104.763 248.257 104.528 248.554 104.36Z" fill="#455A64"/>
<path d="M45.698 65.9901L49.4646 63.7916C49.5393 63.7586 49.6011 63.7019 49.6405 63.6304L50.3733 62.4213L48.1309 61.1315L48.2042 61.3294L45.698 65.9901Z" fill="#4169E1"/>
<g opacity="0.1">
<path d="M45.698 65.9901L49.4646 63.7916C49.5393 63.7586 49.6011 63.7019 49.6405 63.6304L50.3733 62.4213L48.1309 61.1315L48.2042 61.3294L45.698 65.9901Z" fill="black"/>
</g>
<path d="M48.4387 61.3367L45.8299 65.8508C45.7971 65.9251 45.7418 65.9872 45.6718 66.0284C45.6019 66.0696 45.5207 66.0879 45.4399 66.0806C45.359 66.0733 45.2824 66.0409 45.2209 65.9878C45.1594 65.9348 45.1161 65.8638 45.0971 65.7848L42.3417 57.8339L48.4387 61.3367Z" fill="#4169E1"/>
<path d="M34.1636 36.172C34.1974 35.5401 34.3803 34.925 34.6975 34.3774C35.0146 33.8297 35.457 33.3649 35.9883 33.021C36.5557 32.732 37.1835 32.5814 37.8203 32.5814C38.4571 32.5814 39.0848 32.732 39.6523 33.021L69.1552 50.0368C69.6843 50.3824 70.1246 50.8477 70.4404 51.3952C70.7561 51.9427 70.9384 52.5568 70.9726 53.1879V68.1299C70.9384 68.7609 70.7561 69.3751 70.4404 69.9225C70.1246 70.47 69.6843 70.9354 69.1552 71.2809C68.5877 71.5699 67.96 71.7205 67.3232 71.7205C66.6864 71.7205 66.0586 71.5699 65.4912 71.2809L35.8124 54.1405C34.1782 53.2099 34.1636 52.2719 34.1636 51.114V36.172Z" fill="#4169E1"/>
<path d="M61.1383 58.1197L40.0774 45.8964C39.4691 45.5447 38.9781 45.7059 38.9781 46.2555C39.0217 46.5946 39.1437 46.9189 39.3345 47.2025C39.5253 47.4862 39.7797 47.7215 40.0774 47.8896L61.1456 60.1129C61.7612 60.4647 62.2522 60.3034 62.2522 59.7538C62.2071 59.4134 62.0828 59.0882 61.8894 58.8044C61.6959 58.5206 61.4387 58.2861 61.1383 58.1197Z" fill="#455A64"/>
<path d="M54.7335 58.6839L40.0774 50.1687C39.4691 49.8169 38.9781 49.9782 38.9781 50.5278C39.0195 50.8695 39.1405 51.1967 39.3314 51.483C39.5224 51.7694 39.7779 52.007 40.0774 52.1766L54.7335 60.6918C55.3418 61.0436 55.8401 60.8824 55.8401 60.3328C55.7979 59.9904 55.6758 59.6627 55.4836 59.3763C55.2914 59.0899 55.0344 58.8527 54.7335 58.6839Z" fill="#455A64"/>
<path d="M61.1383 53.8108L40.0774 41.5875C39.4691 41.2358 38.9781 41.397 38.9781 41.9466C39.0217 42.2857 39.1437 42.61 39.3345 42.8936C39.5253 43.1773 39.7797 43.4126 40.0774 43.5807L61.1383 55.8406C61.7539 56.1924 62.2448 56.0312 62.2448 55.4816C62.206 55.1353 62.0854 54.8032 61.893 54.5127C61.7006 54.2223 61.442 53.9816 61.1383 53.8108Z" fill="#455A64"/>
<path opacity="0.1" d="M70.9433 68.1299C70.9091 68.7609 70.7268 69.3751 70.4111 69.9225C70.0953 70.47 69.655 70.9354 69.1259 71.281C68.6128 71.5415 68.0502 71.6899 67.4753 71.7164C66.9005 71.7429 66.3266 71.647 65.7916 71.4348C66.649 71.7573 67.3012 71.2663 67.3012 70.233V55.2911C67.2785 54.6568 67.0944 54.0389 66.7663 53.4957L70.4303 51.3998C70.76 51.9397 70.9443 52.5557 70.9653 53.1879L70.9433 68.1299Z" fill="black"/>
<path opacity="0.3" d="M34.2149 35.6591C34.4274 34.8823 35.1309 34.6405 35.9736 35.1241L65.4838 52.1766C66.0236 52.5073 66.466 52.975 66.7663 53.5323L70.4303 51.4364C70.1238 50.8818 69.6828 50.4131 69.1479 50.0734L39.6303 33.0209C39.0625 32.7332 38.4349 32.5832 37.7983 32.5832C37.1617 32.5832 36.5341 32.7332 35.9663 33.0209C35.5105 33.3187 35.1202 33.7062 34.819 34.1597C34.5179 34.6133 34.3124 35.1234 34.2149 35.6591Z" fill="white"/>
<path d="M220.173 74.3001L216.113 71.9551C216.032 71.9219 215.965 71.8626 215.922 71.7866L215.189 70.4822L217.6 69.0898L217.527 69.3024L220.173 74.3001Z" fill="#263238"/>
<path d="M217.219 69.2877L220.026 74.1536C220.07 74.2142 220.128 74.2623 220.196 74.2931C220.264 74.3238 220.339 74.3361 220.414 74.3286C220.488 74.3212 220.559 74.2943 220.619 74.2507C220.68 74.2071 220.728 74.1483 220.759 74.0803L223.69 65.5064L217.219 69.2877Z" fill="#37474F"/>
<path d="M250.548 11.3737C250.511 10.6923 250.314 10.0292 249.973 9.43826C249.632 8.84737 249.156 8.34548 248.584 7.97351L246.986 7.05017C246.378 6.73948 245.705 6.57748 245.022 6.57748C244.339 6.57748 243.666 6.73948 243.058 7.05017L205.311 28.8512C204.739 29.2232 204.263 29.7251 203.922 30.316C203.58 30.9069 203.384 31.5701 203.347 32.2515V68.6575C203.384 69.3389 203.58 70.002 203.922 70.5929C204.263 71.1838 204.739 71.6857 205.311 72.0577L206.909 72.981C207.517 73.2917 208.19 73.4537 208.873 73.4537C209.555 73.4537 210.229 73.2917 210.837 72.981L248.767 51.048C250.533 50.0441 250.548 49.0328 250.548 47.7797V11.3737Z" fill="#37474F"/>
<path d="M203.347 68.6575C203.384 69.3389 203.58 70.002 203.922 70.5929C204.263 71.1838 204.739 71.6857 205.311 72.0577L206.909 72.981C207.462 73.2605 208.067 73.42 208.686 73.449C209.305 73.4781 209.923 73.376 210.5 73.1496C209.576 73.494 208.873 72.9664 208.873 71.8525V35.4392C208.896 34.7553 209.096 34.0891 209.452 33.5046L203.926 30.3169C203.569 30.901 203.37 31.5674 203.347 32.2515V68.6575Z" fill="#263238"/>
<path d="M250.482 10.8168C250.254 9.98141 249.492 9.7176 248.584 10.2379L210.822 32.039C210.241 32.3989 209.763 32.904 209.437 33.5046L203.912 30.3169C204.24 29.7179 204.717 29.2133 205.297 28.8512L243.066 7.05017C243.675 6.74569 244.348 6.58719 245.029 6.58719C245.711 6.58719 246.384 6.74569 246.993 7.05017L248.598 7.97351C249.088 8.29563 249.507 8.71365 249.831 9.20233C250.155 9.69102 250.376 10.2402 250.482 10.8168Z" fill="#455A64"/>
<path d="M212.764 37.8795C212.777 37.6677 212.839 37.4619 212.946 37.2786C213.053 37.0953 213.201 36.9397 213.379 36.8242L244.531 18.8191C244.722 18.7254 244.931 18.6766 245.143 18.6766C245.355 18.6766 245.565 18.7254 245.755 18.8191L246.444 19.2148C246.62 19.3319 246.766 19.4881 246.872 19.6712C246.977 19.8542 247.039 20.0592 247.052 20.2701V44.1743C247.039 44.3862 246.977 44.5922 246.872 44.7765C246.766 44.9607 246.62 45.1182 246.444 45.2369L215.285 63.242C215.094 63.3358 214.885 63.3845 214.673 63.3845C214.461 63.3845 214.251 63.3358 214.061 63.242L213.379 62.8463C213.201 62.7293 213.053 62.5723 212.946 62.3878C212.839 62.2034 212.777 61.9965 212.764 61.7837V37.8795Z" fill="#4169E1"/>
<path opacity="0.4" d="M212.764 37.8795C212.777 37.6677 212.839 37.4619 212.946 37.2786C213.053 37.0953 213.201 36.9397 213.379 36.8242L244.531 18.8191C244.722 18.7254 244.931 18.6766 245.143 18.6766C245.355 18.6766 245.565 18.7254 245.755 18.8191L246.444 19.2148C246.62 19.3319 246.766 19.4881 246.872 19.6712C246.977 19.8542 247.039 20.0592 247.052 20.2701V44.1743C247.039 44.3862 246.977 44.5922 246.872 44.7765C246.766 44.9607 246.62 45.1182 246.444 45.2369L215.285 63.242C215.094 63.3358 214.885 63.3845 214.673 63.3845C214.461 63.3845 214.251 63.3358 214.061 63.242L213.379 62.8463C213.201 62.7293 213.053 62.5723 212.946 62.3878C212.839 62.2034 212.777 61.9965 212.764 61.7837V37.8795Z" fill="white"/>
<path d="M215.622 38.8321L212.947 37.2786C212.837 37.4603 212.774 37.667 212.764 37.8795V61.7837C212.777 61.9965 212.839 62.2033 212.946 62.3878C213.053 62.5723 213.201 62.7293 213.379 62.8463L214.061 63.242C214.251 63.3358 214.461 63.3845 214.673 63.3845C214.885 63.3845 215.094 63.3358 215.285 63.242L215.622 63.0441V38.8321Z" fill="#4169E1"/>
<path opacity="0.3" d="M215.622 38.8321L212.947 37.2786C212.837 37.4603 212.774 37.667 212.764 37.8795V61.7837C212.777 61.9965 212.839 62.2033 212.946 62.3878C213.053 62.5723 213.201 62.7293 213.379 62.8463L214.061 63.242C214.251 63.3358 214.461 63.3845 214.673 63.3845C214.885 63.3845 215.094 63.3358 215.285 63.242L215.622 63.0441V38.8321Z" fill="black"/>
<path d="M247.081 20.2701V44.1816C247.069 44.3801 247.013 44.5734 246.918 44.7481C246.824 44.9228 246.692 45.0746 246.532 45.1929H246.495L215.285 63.242C215.224 63.2836 215.154 63.3094 215.081 63.3171C215.008 63.3248 214.935 63.3141 214.867 63.286C214.802 63.2427 214.75 63.182 214.718 63.1107C214.685 63.0395 214.674 62.9605 214.684 62.8829V38.986C214.677 38.9005 214.692 38.8147 214.726 38.7362C214.76 38.6577 214.814 38.5889 214.881 38.5359C214.949 38.483 215.028 38.4476 215.113 38.4327C215.197 38.4179 215.284 38.4242 215.365 38.4511L228.483 41.5655L230.197 41.9759C230.401 42.0132 230.61 41.9947 230.804 41.9225C230.997 41.8502 231.168 41.7268 231.297 41.5655L233.283 38.7955L246.678 20.1455C246.898 19.823 247.081 19.8817 247.081 20.2701Z" fill="#4169E1"/>
<path d="M246.473 45.2369H246.51C246.657 45.1323 246.779 44.9973 246.869 44.8412C246.983 44.6577 247.048 44.4485 247.059 44.2329L233.253 38.8321L242.494 47.5599L246.473 45.2369Z" fill="#4169E1"/>
<path opacity="0.2" d="M246.473 45.2369H246.51C246.657 45.1323 246.779 44.9973 246.869 44.8412C246.983 44.6577 247.048 44.4485 247.059 44.2329L233.253 38.8321L242.494 47.5599L246.473 45.2369Z" fill="black"/>
<path d="M214.677 62.8829C214.666 62.9605 214.678 63.0394 214.71 63.1107C214.743 63.182 214.794 63.2427 214.86 63.286C214.927 63.3141 215.001 63.3248 215.074 63.3171C215.147 63.3094 215.217 63.2836 215.277 63.242L226.013 57.0424L228.468 41.5582L214.669 62.4872L214.677 62.8829Z" fill="#4169E1"/>
<path opacity="0.2" d="M214.677 62.8829C214.666 62.9605 214.678 63.0394 214.71 63.1107C214.743 63.182 214.794 63.2427 214.86 63.286C214.927 63.3141 215.001 63.3248 215.074 63.3171C215.147 63.3094 215.217 63.2836 215.277 63.242L226.013 57.0424L228.468 41.5582L214.669 62.4872L214.677 62.8829Z" fill="black"/>
<path d="M246.891 44.7972C246.801 44.9534 246.679 45.0884 246.532 45.1929L215.285 63.242C215.224 63.2836 215.154 63.3094 215.082 63.3171C215.009 63.3248 214.935 63.3141 214.867 63.286L229.802 39.4477C230.102 38.9717 230.562 38.6191 231.1 38.4537C231.638 38.2883 232.217 38.3212 232.733 38.5463L246.891 44.7972Z" fill="#4169E1"/>
<path opacity="0.3" d="M214.926 38.4071L229.142 44.6726C229.656 44.9063 230.237 44.9445 230.777 44.7799C231.317 44.6152 231.778 44.2592 232.073 43.7786L246.92 19.933L214.926 38.4071Z" fill="black"/>
<path d="M214.926 38.4071L229.215 43.7493C229.71 43.933 230.252 43.9431 230.752 43.778C231.253 43.6129 231.683 43.2823 231.971 42.8406L246.92 19.933L214.926 38.4071Z" fill="#4169E1"/>
<path d="M258.792 2.34554L255.523 0.403597C254.395 -0.233947 252.841 -0.138681 251.126 0.850612C247.675 2.84385 244.876 7.69505 244.876 11.6889C244.876 13.6748 245.572 15.0744 246.7 15.734L249.771 17.4927L250.32 16.5694C250.952 16.4175 251.558 16.1704 252.116 15.8366C255.575 13.836 258.374 8.9848 258.374 4.99831C258.373 4.45976 258.306 3.92334 258.176 3.40079L258.792 2.34554Z" fill="#F28F8F"/>
<path d="M254.234 2.66798C250.782 4.66122 247.983 9.51242 247.983 13.4989C247.983 17.4854 250.782 19.1122 254.234 17.1117C257.685 15.1111 260.492 10.2672 260.492 6.28073C260.492 2.29425 257.722 0.674739 254.234 2.66798Z" fill="#FFA8A7"/>
<path d="M251.998 10.062C251.958 10.002 251.942 9.92836 251.955 9.85685C251.969 9.76579 252.001 9.67854 252.05 9.60036L253.867 6.66913L254.036 6.41997C254.095 6.33103 254.172 6.25601 254.263 6.20013L255.289 5.59922C255.314 5.58283 255.343 5.5741 255.373 5.5741C255.403 5.5741 255.432 5.58283 255.457 5.59922C255.481 5.62185 255.499 5.64935 255.51 5.67976C255.521 5.71017 255.526 5.74273 255.523 5.7751V13.1032C255.521 13.1903 255.499 13.2757 255.457 13.3523C255.419 13.4277 255.361 13.4911 255.289 13.5355L254.182 14.1804C254.159 14.1982 254.131 14.2079 254.102 14.2079C254.072 14.2079 254.044 14.1982 254.021 14.1804C253.998 14.1578 253.98 14.1303 253.968 14.0999C253.957 14.0695 253.952 14.0369 253.955 14.0045V9.05076L252.944 10.6556C252.907 10.7249 252.848 10.7794 252.775 10.8095C252.753 10.8267 252.726 10.8361 252.698 10.8361C252.67 10.8361 252.643 10.8267 252.621 10.8095L251.998 10.062Z" fill="white"/>
<path d="M266.779 193.748C264.999 191.681 263.562 188.75 262.925 188.142C261.071 186.376 259.187 161.365 259.187 161.365C263.518 161.219 265.841 162.831 266.589 166.158C267.336 169.485 270.304 185.577 270.304 185.577" fill="#FFA8A7"/>
<path d="M240.391 195.609C238.236 199.962 232.916 213.065 230.806 222.13C228.827 230.616 228.058 236.493 230.806 238.545C233.554 240.597 241.417 239.351 246.4 228.747C247.961 225.427 253.831 215.183 253.831 215.183C253.831 215.183 258.169 213.622 259.693 212.449C259.693 212.449 274.173 212.867 281.208 211.431C288.243 209.994 295.725 201.391 292.845 200.549C287.664 199.024 277.566 197.918 265.878 197.163L240.391 195.609Z" fill="#37474F"/>
<path d="M274.276 209.613C271.11 210.346 266.42 209.364 263.767 208.595C263.93 207.663 263.9 206.708 263.68 205.788C263.533 207.028 263.134 208.225 262.507 209.306C262.075 209.555 261.701 209.76 261.437 209.892C259.678 210.793 254.842 213.263 253.948 212.486C252.597 210.743 250.678 209.527 248.525 209.049C250.042 210.068 254.431 213.211 252.871 216.861L253.831 215.183C253.831 215.183 258.169 213.622 259.693 212.449C259.693 212.449 267.754 212.684 274.818 212.2L283.158 206.426C283.158 206.426 279.134 206.191 274.276 209.613Z" fill="#263238"/>
<path d="M266.164 219.748C264.647 221.118 262.331 222.218 260.704 221.881C259.077 221.543 256.747 221.382 255.838 224.629C254.805 228.293 251.442 230.557 249.595 232.58C247.748 234.602 248.327 237.636 249.294 239.732C250.921 243.264 253.296 241.131 254.615 238.889C255.934 236.647 259.803 232.536 261.672 230.828C263.743 228.77 265.946 226.848 268.267 225.076L266.164 219.748Z" fill="#FFA8A7"/>
<path d="M287.972 200.277C297.037 199.354 297.22 204.887 294.89 208.631C292.376 212.662 282.784 217.638 278.087 220.027C273.389 222.415 266.831 226.167 266.831 226.167C265.428 224.67 264.547 222.761 264.317 220.723C269.447 217.117 274.496 207.855 283.106 206.426L287.972 200.277Z" fill="#37474F"/>
<path d="M261.305 221.939C261.104 221.935 260.903 221.915 260.704 221.881C259.077 221.536 256.747 221.382 255.838 224.629C254.805 228.293 251.442 230.557 249.595 232.58C247.748 234.602 248.327 237.636 249.294 239.732C250.921 243.264 253.296 241.131 254.615 238.889C255.334 237.763 256.14 236.695 257.026 235.694C256.618 236.179 256.041 236.49 255.413 236.565C254.784 236.64 254.15 236.473 253.64 236.097C252.973 235.518 253.464 233.481 254.703 232.111C255.941 230.74 260.448 221.829 261.305 221.939Z" fill="#263238"/>
<path d="M262.434 220.869C264.09 220.452 266.523 219.858 267.527 218.539C268.531 217.22 270.612 215.937 273.433 217.806C276.628 219.909 280.629 219.411 283.355 219.711C286.081 220.012 287.628 222.701 288.273 224.914C289.364 228.652 286.228 227.377 283.766 226.549C281.304 225.72 275.58 224.944 273.155 225.266C270.729 225.589 264.647 227.127 264.647 227.127L262.434 220.869Z" fill="#FFA8A7"/>
<path d="M282.593 226.189C283.026 226.299 283.429 226.409 283.766 226.527C286.228 227.355 289.364 228.63 288.273 224.892C287.628 222.694 286.074 219.997 283.355 219.689C280.637 219.382 276.628 219.887 273.433 217.784C270.612 215.937 268.531 217.213 267.527 218.517C267.409 218.664 267.279 218.802 267.138 218.927C267.138 218.927 270.385 219.931 273.961 220.965C277.537 221.998 283.59 223.786 283.817 224.709C283.986 225.398 284.103 226.233 282.593 226.189Z" fill="#263238"/>
<path d="M229.318 236.112C229.846 239.336 233.458 240.89 241.204 239.336C248.95 237.783 265.636 227.193 265.636 227.193C265.636 227.193 266.662 221.734 262.426 220.54C262.426 220.54 258.572 221.272 252.284 222.606C249.446 223.232 246.643 224.007 243.886 224.929C239.636 230.63 235.21 228.329 233.627 230.337C230.967 233.701 229.318 236.112 229.318 236.112Z" fill="#37474F"/>
<path d="M249.243 223.346C246.036 224.024 242.97 225.249 240.178 226.966C240.178 226.966 244.143 222.32 250.269 221.485L249.243 223.346Z" fill="#263238"/>
<path d="M264.691 181.708C265.043 185.006 265.856 197.163 265.856 197.163C263.298 205.788 243.439 204.051 239.599 197.287C240.827 194.478 241.824 191.574 242.582 188.604L240.471 179.378C240.471 179.378 245.52 174.776 240.471 165.381L247.147 163.38L259.187 161.365C261.217 161.475 264.661 166.128 265.988 169.529C266.831 171.705 267.512 176.124 264.691 181.708Z" fill="#4169E1"/>
<path opacity="0.15" d="M254.278 203.011C245.945 202.659 242.106 197.537 242.194 196.188C242.496 194.213 242.907 192.256 243.425 190.326L246.546 191.55L243.974 187.798L242.194 179.803C244.077 177.04 243.146 172.042 243.146 172.042L242.626 171.734C243.234 176.864 240.471 179.378 240.471 179.378L242.582 188.604C241.823 191.569 240.826 194.468 239.599 197.273C241.637 200.878 248.195 203.055 254.278 203.011Z" fill="black"/>
<path d="M254.182 158.163L249.785 158.28C248.335 158.32 246.891 158.074 245.536 157.555C244.181 157.037 242.941 156.257 241.887 155.259C240.834 154.261 239.987 153.066 239.396 151.741C238.805 150.416 238.48 148.987 238.442 147.537C238.394 145.799 238.689 144.07 239.31 142.446C239.93 140.822 240.865 139.337 242.06 138.075C243.255 136.812 244.687 135.798 246.274 135.089C247.861 134.38 249.572 133.991 251.31 133.943C253.047 133.896 254.777 134.191 256.401 134.811C258.024 135.432 259.51 136.367 260.772 137.562C262.034 138.757 263.049 140.189 263.758 141.776C264.467 143.363 264.856 145.074 264.903 146.812C264.984 149.738 263.901 152.577 261.891 154.705C259.881 156.833 257.108 158.077 254.182 158.163Z" fill="#263238"/>
<path d="M240.618 141.103L237.328 139.952C237.391 139.73 237.5 139.523 237.647 139.344C237.794 139.165 237.977 139.018 238.183 138.913C238.389 138.808 238.615 138.746 238.846 138.732C239.077 138.718 239.309 138.752 239.526 138.831C239.964 138.998 240.322 139.327 240.525 139.75C240.728 140.172 240.761 140.657 240.618 141.103Z" fill="#263238"/>
<path d="M240.581 140.253L239.57 136.926C239.786 136.845 240.015 136.809 240.245 136.821C240.475 136.833 240.7 136.892 240.907 136.994C241.113 137.096 241.296 137.24 241.444 137.416C241.592 137.592 241.703 137.797 241.768 138.018C241.9 138.472 241.85 138.959 241.628 139.376C241.406 139.793 241.031 140.108 240.581 140.253Z" fill="#263238"/>
<path d="M259.649 139.645C261.071 140.436 262.895 143.902 262.925 151.282C262.925 157.533 260.968 159.13 259.993 159.599C259.019 160.068 257.018 159.856 255.106 159.599L255.142 162.186C255.142 162.186 258.579 165.945 258.455 167.667C258.33 169.389 254.058 170.283 251.551 168.671C249.734 167.349 248.151 165.732 246.869 163.886L246.678 155.224C246.678 155.224 245.586 156.345 243.637 154.733C242.032 153.4 241.439 151.069 242.633 149.823C242.941 149.514 243.318 149.283 243.734 149.149C244.149 149.015 244.59 148.983 245.021 149.055C245.451 149.126 245.858 149.3 246.208 149.561C246.557 149.823 246.839 150.164 247.03 150.556C247.03 150.556 250.071 150.556 254.058 148.248C255.599 147.352 256.907 146.107 257.879 144.613C258.85 143.118 259.456 141.417 259.649 139.645Z" fill="#FFA8A7"/>
<path d="M255.904 149.897C255.919 150.003 255.912 150.111 255.883 150.214C255.854 150.317 255.805 150.413 255.737 150.496C255.67 150.579 255.586 150.648 255.492 150.697C255.397 150.747 255.293 150.777 255.186 150.785C255.08 150.793 254.972 150.779 254.871 150.744C254.77 150.709 254.677 150.654 254.598 150.582C254.519 150.509 254.456 150.422 254.412 150.324C254.368 150.226 254.345 150.121 254.343 150.014C254.329 149.908 254.336 149.8 254.365 149.697C254.394 149.594 254.443 149.498 254.511 149.415C254.578 149.331 254.661 149.263 254.756 149.213C254.851 149.163 254.955 149.134 255.062 149.126C255.168 149.118 255.276 149.132 255.377 149.166C255.478 149.201 255.571 149.257 255.65 149.329C255.729 149.401 255.792 149.489 255.836 149.586C255.88 149.684 255.903 149.79 255.904 149.897Z" fill="#263238"/>
<path d="M256.256 155.188L258.095 155.722C258.066 155.846 258.011 155.962 257.936 156.063C257.86 156.165 257.764 156.25 257.655 156.314C257.545 156.378 257.424 156.418 257.298 156.434C257.172 156.449 257.045 156.439 256.923 156.404C256.676 156.328 256.468 156.158 256.343 155.931C256.219 155.704 256.187 155.437 256.256 155.188Z" fill="#F28F8F"/>
<path d="M262.28 147.31L260.653 146.255C260.718 146.146 260.803 146.051 260.905 145.976C261.007 145.901 261.124 145.848 261.247 145.819C261.37 145.791 261.498 145.787 261.623 145.809C261.747 145.831 261.866 145.878 261.972 145.947C262.189 146.091 262.342 146.313 262.399 146.567C262.457 146.821 262.414 147.087 262.28 147.31Z" fill="#263238"/>
<path d="M261.965 149.164C261.976 149.27 261.965 149.376 261.934 149.478C261.903 149.58 261.852 149.674 261.783 149.756C261.715 149.837 261.631 149.904 261.536 149.952C261.441 150 261.338 150.029 261.232 150.036C261.022 150.05 260.816 149.981 260.656 149.844C260.497 149.707 260.399 149.512 260.382 149.303C260.374 149.2 260.387 149.097 260.419 148.999C260.451 148.901 260.503 148.81 260.57 148.731C260.637 148.653 260.72 148.589 260.812 148.542C260.904 148.496 261.004 148.468 261.107 148.46C261.21 148.453 261.314 148.465 261.412 148.498C261.51 148.53 261.601 148.581 261.679 148.649C261.757 148.716 261.821 148.798 261.868 148.89C261.914 148.982 261.942 149.083 261.95 149.186L261.965 149.164Z" fill="#263238"/>
<path d="M258.411 148.424L258.499 153.539L260.968 152.703L258.411 148.424Z" fill="#F28F8F"/>
<path d="M255.076 159.592C253.061 159.379 248.891 158.302 248.203 156.661C248.488 157.479 249.014 158.192 249.712 158.705C250.973 159.731 255.113 160.808 255.113 160.808L255.076 159.592Z" fill="#F28F8F"/>
<path d="M241.834 218.099V218.693C241.83 218.989 241.905 219.28 242.05 219.538C242.196 219.795 242.407 220.009 242.663 220.158L258.55 229.297C258.803 229.445 259.091 229.524 259.385 229.524C259.679 229.524 259.967 229.445 260.221 229.297L289.364 212.442C289.622 212.295 289.836 212.081 289.983 211.823C290.13 211.566 290.205 211.273 290.2 210.976V210.573L259.385 228.359L241.834 218.099Z" fill="#EBEBEB"/>
<path d="M290.2 210.603L272.92 200.622C272.768 200.535 272.597 200.489 272.422 200.489C272.247 200.489 272.075 200.535 271.924 200.622L241.944 217.938C241.911 217.957 241.883 217.985 241.864 218.019C241.844 218.052 241.834 218.09 241.834 218.129C241.834 218.167 241.844 218.205 241.864 218.239C241.883 218.272 241.911 218.3 241.944 218.319L259.385 228.395L290.2 210.603Z" fill="#FAFAFA"/>
<path d="M270.289 185.548C272.612 188.926 277.881 196.269 280.248 200.475C281.611 202.901 279.897 205.253 276.174 204.256C273.719 203.604 270.194 197.72 266.779 193.733" fill="#FFA8A7"/>
<path d="M259.231 226.922L249.91 221.551L277.163 205.81L286.536 211.16L259.231 226.922Z" fill="#E0E0E0"/>
<path d="M254.644 211.966L254.82 212.068L259.385 214.706L267.512 210.016L267.681 209.921L262.939 207.18L254.644 211.966Z" fill="#E0E0E0"/>
<path d="M254.82 212.068L259.385 214.706L267.512 210.016L262.939 207.378L254.82 212.068Z" fill="#E6E6E6"/>
<path d="M259.385 228.388V229.516C259.679 229.518 259.968 229.439 260.221 229.289L289.364 212.435C289.622 212.288 289.836 212.074 289.983 211.816C290.13 211.558 290.205 211.266 290.2 210.969V210.566L259.385 228.388Z" fill="#EBEBEB"/>
<g opacity="0.5">
<path d="M259.385 228.388V229.516C259.679 229.518 259.968 229.439 260.221 229.289L289.364 212.435C289.622 212.288 289.836 212.074 289.983 211.816C290.13 211.558 290.205 211.266 290.2 210.969V210.566L259.385 228.388Z" fill="#E0E0E0"/>
</g>
<path d="M259.854 228.637C260.13 228.743 260.425 228.786 260.719 228.764C261.013 228.741 261.299 228.652 261.554 228.505L290.574 211.753C290.827 211.609 291.045 211.409 291.211 211.17C291.377 210.93 291.487 210.656 291.534 210.368L294.714 191.41C294.721 191.303 294.721 191.195 294.714 191.088C294.715 190.827 294.664 190.568 294.565 190.327C294.465 190.085 294.319 189.866 294.135 189.681L263.98 207.1C263.79 207.205 263.626 207.351 263.499 207.527C263.372 207.703 263.286 207.905 263.247 208.118L259.854 228.637Z" fill="#4169E1"/>
<g opacity="0.7">
<path d="M259.854 228.637C260.13 228.743 260.425 228.786 260.719 228.764C261.013 228.741 261.299 228.652 261.554 228.505L290.574 211.753C290.827 211.609 291.045 211.409 291.211 211.17C291.377 210.93 291.487 210.656 291.534 210.368L294.714 191.41C294.721 191.303 294.721 191.195 294.714 191.088C294.715 190.827 294.664 190.568 294.565 190.327C294.465 190.085 294.319 189.866 294.135 189.681L263.98 207.1C263.79 207.205 263.626 207.351 263.499 207.527C263.372 207.703 263.286 207.905 263.247 208.118L259.854 228.637Z" fill="white"/>
</g>
<path d="M259.385 228.395L259.583 228.505C259.67 228.555 259.761 228.599 259.854 228.637L263.291 208.118C263.33 207.905 263.416 207.703 263.543 207.527C263.67 207.351 263.834 207.205 264.024 207.1L294.179 189.681C294.056 189.567 293.92 189.466 293.776 189.38L263.555 206.821C263.364 206.927 263.199 207.074 263.073 207.251C262.946 207.429 262.86 207.633 262.822 207.847L259.385 228.395Z" fill="#FAFAFA"/>
<path d="M276.203 211.145C276.657 209.56 277.708 208.212 279.134 207.386C280.534 206.572 281.501 206.946 281.289 208.214C280.83 209.798 279.781 211.146 278.358 211.98C276.951 212.786 275.991 212.413 276.203 211.145Z" fill="#4169E1"/>
<path d="M244.311 214.67C242.714 213.571 232.535 206.162 228.468 203.011C224.232 199.728 224.489 198.672 225.002 196.306C226.013 191.63 232.432 176.908 234.199 172.541C236.177 167.667 236.631 167.052 240.471 165.381C243.124 167.477 244.604 172.614 241.036 179.693L233.766 196.797C233.766 196.797 238.61 201.926 241.475 204.638C244.341 207.349 246.869 210.39 249.009 210.625C250.709 210.808 253.721 210.925 254.365 211.519C255.942 213.109 257.411 214.803 258.762 216.59C259.371 217.586 260.814 219.616 258.762 220.254C256.894 220.84 255.369 220.041 253.845 219.001C253.133 218.486 252.455 217.925 251.815 217.322C250.295 217.492 248.759 217.188 247.418 216.45C246.246 215.806 244.311 214.67 244.311 214.67Z" fill="#FFA8A7"/>
<path d="M238.918 172.042H239.13C240.162 172.042 241.183 171.835 242.134 171.433C243.085 171.032 243.946 170.445 244.666 169.706C245.386 168.967 245.952 168.092 246.329 167.131C246.706 166.171 246.887 165.145 246.861 164.113L246.664 155.869C245.647 155.868 244.64 156.068 243.7 156.456C242.76 156.845 241.906 157.414 241.187 158.133C240.468 158.852 239.897 159.705 239.508 160.644C239.118 161.584 238.918 162.591 238.918 163.608V172.042Z" fill="#263238"/>
<path d="M33.2109 144.664C32.4781 146.24 30.1185 148.526 27.3851 145.58C23.3913 141.264 16.8106 125.941 16.8106 125.941L21.1342 123.941L29.9279 135.973L34.6252 141.191" fill="#FFA8A7"/>
<path d="M34.3761 115.242C32.3022 122.197 28.1325 137.688 28.1325 137.688L33.2109 144.665C34.118 142.877 34.892 141.026 35.5266 139.124C36.4133 136.706 39.3445 127.055 39.3445 127.055C39.3445 127.055 38.7216 113.132 40.8981 111.27C42.0721 110.231 43.4288 109.419 44.8992 108.874C41.433 109.153 36.2667 108.874 34.3761 115.242Z" fill="#FFA8A7"/>
<path d="M24.6297 116.246C23.4792 114.106 23.1641 114.011 22.5119 113.542C21.8597 113.073 17.6387 112.45 15.9166 112.304C13.8648 112.128 13.1393 112.509 13.7182 114.268C14.9347 118.034 18.628 126.029 19.4561 127.136C19.9984 127.868 20.1083 128.528 22.3873 128.755C24.5345 128.96 27.2312 129.078 28.0226 129.129C28.8141 129.18 29.9133 129.371 29.2025 127.04C28.2961 124.399 27.2492 121.809 26.066 119.28C25.1793 117.397 24.6297 116.246 24.6297 116.246Z" fill="#263238"/>
<path d="M16.8106 125.941C15.9533 122.16 13.4397 118.672 14.8614 117.397L15.5942 119.067C15.5942 119.067 20.2988 120.196 22.5705 120.02C24.8422 119.844 26.6962 119.287 27.3191 119.742C28.6382 120.672 29.0192 124.629 25.238 126.073C22.0576 127.29 16.8106 125.941 16.8106 125.941Z" fill="#FFA8A7"/>
<path d="M45.207 107.636C41.0447 107.68 36.4646 109.197 34.8891 112.458C33.3135 115.719 30.3969 127.656 30.3969 127.656C31.6053 128.761 33.0316 129.6 34.584 130.12C36.1364 130.64 37.7806 130.829 39.4105 130.675L45.207 107.636Z" fill="#4169E1"/>
<path opacity="0.1" d="M45.207 107.636C41.0447 107.68 36.4646 109.197 34.8891 112.458C33.3135 115.719 30.3969 127.656 30.3969 127.656C31.6053 128.761 33.0316 129.6 34.584 130.12C36.1364 130.64 37.7806 130.829 39.4105 130.675L45.207 107.636Z" fill="black"/>
<path d="M63.2927 227.816H57.5329V236.2H63.2927V227.816Z" fill="#FFA8A7"/>
<path d="M43.0459 217.44L37.2894 217.638L37.5776 226.016L43.3341 225.818L43.0459 217.44Z" fill="#FFA8A7"/>
<path d="M62.9117 145.976C62.9117 151.48 63.6445 187.014 63.6445 187.014C63.7764 188.589 65.2567 191.506 64.9416 197.581C64.5019 205.839 63.7911 228.762 63.7911 228.762C63.7911 228.762 61.087 231.444 57.2764 228.762C57.2764 228.762 52.0661 197.61 51.0328 189.432C50.1315 182.294 48.6072 162.904 48.6072 162.904L45.676 186.178C45.676 186.178 46.614 191.55 46.8192 195.331C47.0244 199.112 43.4409 220.547 43.4409 220.547C42.5087 221.131 41.4392 221.461 40.3395 221.502C39.2399 221.543 38.1488 221.295 37.1754 220.781C37.1754 220.781 34.977 189.271 34.3614 185.856C33.7459 182.441 35.9809 145.976 35.9809 145.976H62.9117Z" fill="#37474F"/>
<path d="M54.2425 107.87C54.9167 108.031 60.4641 109.336 62.9117 110.164V145.976C58.8739 150.373 44.7966 152.418 35.9809 145.976V117.91C35.9809 113.425 38.4725 108.039 45.3536 107.65L54.2425 107.87Z" fill="#EBEBEB"/>
<path d="M56.1991 84.9478C56.6619 84.8948 57.1307 84.9477 57.57 85.1026C58.0092 85.2575 58.4075 85.5103 58.7347 85.8419C59.8265 86.9557 59.5994 89.0223 58.7347 93.7635L55.3637 94.1519L56.1991 84.9478Z" fill="#263238"/>
<path d="M36.5379 83.5775C35.8128 83.5807 35.0947 83.4361 34.4274 83.1525C33.3941 82.5589 33.123 83.7314 33.6946 84.75C34.0685 85.4817 34.624 86.1051 35.3079 86.5606C35.9918 87.0161 36.7812 87.2884 37.6004 87.3515C37.6004 87.2049 38.5677 84.7133 38.5677 84.7133L36.5379 83.5775Z" fill="#263238"/>
<path d="M54.6016 94.1519C55.0999 94.4524 55.8181 93.4924 56.4337 92.8475C57.0492 92.2026 59.0644 91.3159 60.0977 93.4338C61.131 95.5516 59.211 98.4389 57.6208 98.9372C54.8948 99.7945 54.4844 98.0431 54.4844 98.0431L54.2426 107.87C53.6424 109.187 52.7265 110.336 51.576 111.214C50.4255 112.092 49.076 112.673 47.6473 112.905C42.8034 113.564 43.8 109.563 45.3902 107.606V104.609C44.179 104.801 42.9508 104.865 41.7262 104.8C39.7109 104.492 38.4505 102.902 37.8423 100.725C36.8603 97.237 36.4866 94.4157 37.322 87.5347C38.2307 80.0014 46.9877 79.9281 51.7217 82.9033C56.4556 85.8785 54.6016 94.1519 54.6016 94.1519Z" fill="#FFA8A7"/>
<path d="M54.6016 94.9946C54.8508 94.9946 55.8107 93.4118 56.4336 92.8475C57.2983 92.0561 56.1845 84.9478 56.1845 84.9478C56.1845 84.9478 57.0565 82.2511 55.3491 80.4631C53.6416 78.675 50.3367 78.9974 47.9257 78.8948C44.9578 78.9083 42.0181 78.3173 39.2859 77.1581C35.8563 75.6925 35.6218 75.4946 35.1748 76.9969C34.7278 78.4991 34.5886 81.958 36.6404 84.2663L38.3479 84.8965C38.3479 84.8965 39.2639 85.71 42.4663 86.0983C45.4205 86.3218 48.3891 86.2679 51.3333 85.9371C52.2639 85.8052 52.4618 86.7066 52.9601 89.1615C53.3925 91.3233 53.7589 94.98 54.6016 94.9946Z" fill="#263238"/>
<path d="M56.1992 85.5048L59.2257 83.878C59.1265 83.6762 58.9876 83.4965 58.8173 83.3497C58.647 83.2029 58.4489 83.092 58.2347 83.0235C58.0206 82.9551 57.7948 82.9306 57.5709 82.9515C57.3471 82.9724 57.1298 83.0383 56.932 83.1451C56.531 83.3699 56.2314 83.7399 56.0951 84.1789C55.9588 84.6179 55.996 85.0924 56.1992 85.5048Z" fill="#263238"/>
<path d="M45.3609 104.638C45.3609 104.638 49.8457 103.737 51.4139 102.902C52.347 102.425 53.1135 101.676 53.6123 100.755C53.3761 101.674 52.9574 102.536 52.3812 103.29C51.238 104.756 45.3902 105.833 45.3902 105.833L45.3609 104.638Z" fill="#F28F8F"/>
<path d="M46.4381 93.0307C46.4453 93.2072 46.5042 93.3778 46.6075 93.5211C46.7108 93.6644 46.854 93.7742 47.0192 93.8369C47.1844 93.8995 47.3644 93.9122 47.5367 93.8734C47.7091 93.8346 47.8662 93.746 47.9887 93.6186C48.1111 93.4912 48.1934 93.3306 48.2253 93.1569C48.2572 92.9831 48.2373 92.8038 48.1682 92.6412C48.099 92.4786 47.9836 92.34 47.8362 92.2424C47.6889 92.1449 47.5162 92.0929 47.3395 92.0927C47.2186 92.0946 47.0992 92.1204 46.9883 92.1687C46.8774 92.217 46.7772 92.2867 46.6934 92.3739C46.6096 92.4611 46.5439 92.5641 46.5001 92.6768C46.4563 92.7895 46.4352 92.9098 46.4381 93.0307Z" fill="#263238"/>
<path d="M47.4054 89.6378L49.3327 90.7004C49.4688 90.4365 49.4983 90.1304 49.4151 89.8453C49.3319 89.5603 49.1424 89.3181 48.8857 89.1688C48.7586 89.0985 48.6184 89.0548 48.4738 89.0404C48.3293 89.026 48.1833 89.0412 48.0448 89.0851C47.9062 89.129 47.7781 89.2007 47.6682 89.2957C47.5583 89.3907 47.4689 89.5071 47.4054 89.6378Z" fill="#263238"/>
<path d="M45.7713 99.2376L43.7414 100.007C43.785 100.145 43.8562 100.273 43.9508 100.383C44.0453 100.493 44.1612 100.583 44.2914 100.646C44.4216 100.71 44.5635 100.747 44.7082 100.754C44.853 100.761 44.9978 100.739 45.1337 100.689C45.4057 100.575 45.6235 100.36 45.7422 100.09C45.8608 99.8203 45.8712 99.5151 45.7713 99.2376Z" fill="#F28F8F"/>
<path d="M38.4212 90.3853L40.1799 89.0369C40.0977 88.9183 39.9922 88.8177 39.8699 88.7412C39.7475 88.6647 39.6108 88.6139 39.4682 88.592C39.3256 88.5701 39.18 88.5774 39.0403 88.6136C38.9006 88.6497 38.7697 88.714 38.6557 88.8024C38.4219 88.9864 38.2674 89.2529 38.2238 89.5472C38.1802 89.8415 38.2508 90.1414 38.4212 90.3853Z" fill="#263238"/>
<path d="M38.9635 92.7742C38.9706 92.9508 39.0295 93.1213 39.1329 93.2646C39.2362 93.408 39.3793 93.5178 39.5445 93.5804C39.7097 93.643 39.8897 93.6557 40.0621 93.6169C40.2344 93.5781 40.3916 93.4895 40.514 93.3621C40.6364 93.2347 40.7187 93.0742 40.7506 92.9004C40.7825 92.7266 40.7627 92.5473 40.6935 92.3847C40.6243 92.2222 40.5089 92.0835 40.3616 91.986C40.2142 91.8885 40.0415 91.8364 39.8648 91.8362C39.7439 91.8381 39.6245 91.864 39.5136 91.9122C39.4028 91.9605 39.3025 92.0302 39.2187 92.1175C39.1349 92.2047 39.0692 92.3076 39.0254 92.4203C38.9816 92.5331 38.9605 92.6533 38.9635 92.7742Z" fill="#263238"/>
<path d="M43.5435 91.9242L43.2504 97.325L40.4291 96.365L43.5435 91.9242Z" fill="#F28F8F"/>
<path d="M57.5329 233.356V232.536C56.9833 232.77 55.7008 237.665 53.4145 239.739C51.5971 241.395 49.1202 243.308 48.49 245.155C47.8598 247.001 51.9415 248.137 53.6197 247.837C55.5909 247.485 59.0058 246.1 59.8632 244.81C60.7206 243.52 61.1236 241.63 61.8198 240.684C62.516 239.739 64.1208 238.691 64.5019 237.599C64.7071 236.998 64.4579 235.687 64.1721 234.573C63.8863 233.459 63.6152 232.44 63.2634 232.536V233.18C62.4455 233.824 61.4316 234.168 60.3908 234.155C59.5701 234.162 57.5255 234.001 57.5329 233.356Z" fill="#263238"/>
<path d="M37.5125 224.24C37.2121 224.24 36.9702 224.673 36.3107 225.383C35.3265 226.38 34.1821 227.205 32.9251 227.824C30.7707 228.901 26.579 230.564 24.681 231.414C23.4939 231.949 23.5525 233.378 24.7763 234.192C26.0001 235.005 28.9606 235.599 32.5074 234.8C34.442 234.368 36.9629 232.602 38.5531 232.682C40.1433 232.763 43.1332 232.755 44.3057 231.949C45.4782 231.143 45.0385 229.407 44.6794 227.919C44.3203 226.292 43.8 223.808 43.2651 223.918V224.431C42.5762 225.479 39.0514 225.896 37.5272 225.164L37.5125 224.24Z" fill="#263238"/>
<path d="M73.4934 141.946C73.8525 140.216 69.9759 123.047 68.459 117.616L61.7392 125.458L65.8722 142.4C65.1021 147.139 63.9753 151.813 62.5013 156.382C62.2317 157.091 61.7098 157.676 61.0357 158.024C59.2403 158.984 58.4782 160.039 57.0932 161.307C56.0086 162.296 55.1292 162.501 55.2392 162.853C55.4091 163.237 55.7176 163.544 56.1034 163.711C56.4891 163.878 56.9237 163.893 57.3203 163.754C58.2091 163.472 59.0624 163.089 59.8632 162.611C59.1604 164.123 58.2203 165.514 57.0785 166.729C54.4697 169.514 54.2425 171.324 59.1011 171.69C62.1422 171.925 64.6997 170.225 67.4478 163.63C68.2392 161.746 69.2358 158.998 69.9833 156.514C71.742 150.659 72.6654 145.976 73.4934 141.946Z" fill="#FFA8A7"/>
<path d="M59.4528 120.533C57.6208 116.327 58.5368 111.402 60.5667 109.49C65.6963 110.376 67.0374 112.817 68.459 117.616C70.6575 125.018 71.7494 129.825 71.7494 129.825C70.4596 131.54 65.3226 133.533 62.9117 132.8L59.4528 120.533Z" fill="#4169E1"/>
<path opacity="0.1" d="M59.4528 120.533C57.6208 116.327 58.5368 111.402 60.5667 109.49C65.6963 110.376 67.0374 112.817 68.459 117.616C70.6575 125.018 71.7494 129.825 71.7494 129.825C70.4596 131.54 65.3226 133.533 62.9117 132.8L59.4528 120.533Z" fill="black"/>
<path opacity="0.1" d="M62.9117 132.8L60.5667 124.483L62.9117 140.128V132.8Z" fill="black"/>
<path d="M48.5853 162.926C45.6095 161.998 42.8731 160.43 40.5683 158.331C40.5683 158.331 42.1146 161.226 46.7166 163.923L46.4674 179.751L48.5853 162.926Z" fill="#263238"/>
</svg>
