<svg width="32" height="32" viewBox="0 0 32 32" fill="none" xmlns="http://www.w3.org/2000/svg">
<rect width="32" height="32" rx="8" fill="#4169E1"/>
<path d="M16 16C18.7614 16 21 13.7614 21 11C21 8.23858 18.7614 6 16 6C13.2386 6 11 8.23858 11 11C11 13.7614 13.2386 16 16 16Z" stroke="#F3F3F3" stroke-width="1.5" stroke-linecap="round" stroke-linejoin="round"/>
<path d="M7.40997 26C7.40997 22.13 11.26 19 16 19" stroke="#F3F3F3" stroke-width="1.5" stroke-linecap="round" stroke-linejoin="round"/>
<path d="M22.2 25.4C23.9673 25.4 25.4 23.9673 25.4 22.2C25.4 20.4327 23.9673 19 22.2 19C20.4327 19 19 20.4327 19 22.2C19 23.9673 20.4327 25.4 22.2 25.4Z" stroke="#F3F3F3" stroke-width="1.5" stroke-linecap="round" stroke-linejoin="round"/>
<path d="M26 26L25 25" stroke="#F3F3F3" stroke-width="1.5" stroke-linecap="round" stroke-linejoin="round"/>
</svg>
