<svg width="36" height="36" viewBox="0 0 36 36" fill="none" xmlns="http://www.w3.org/2000/svg">
<rect width="36" height="36" rx="8" fill="#ADBFF2"/>
<path d="M18.4416 25.0167H13.175C10.5416 25.0167 9.66663 23.2667 9.66663 21.5083V14.4917C9.66663 11.8583 10.5416 10.9833 13.175 10.9833H18.4416C21.075 10.9833 21.95 11.8583 21.95 14.4917V21.5083C21.95 24.1417 21.0666 25.0167 18.4416 25.0167Z" stroke="#030303" stroke-width="1.5" stroke-linecap="round" stroke-linejoin="round"/>
<path d="M24.2666 22.25L21.95 20.625V15.3667L24.2666 13.7417C25.4 12.95 26.3333 13.4333 26.3333 14.825V21.175C26.3333 22.5667 25.4 23.05 24.2666 22.25Z" stroke="#030303" stroke-width="1.5" stroke-linecap="round" stroke-linejoin="round"/>
<path d="M17.5834 17.1667C18.2737 17.1667 18.8334 16.607 18.8334 15.9167C18.8334 15.2263 18.2737 14.6667 17.5834 14.6667C16.893 14.6667 16.3334 15.2263 16.3334 15.9167C16.3334 16.607 16.893 17.1667 17.5834 17.1667Z" stroke="#030303" stroke-width="1.5" stroke-linecap="round" stroke-linejoin="round"/>
</svg>
