<svg width="36" height="36" viewBox="0 0 36 36" fill="none" xmlns="http://www.w3.org/2000/svg">
<rect width="36" height="36" rx="8" fill="#ADBFF2"/>
<path d="M26.3333 13.2084V17.4583C26.3333 18.5167 25.9833 19.4083 25.3583 20.025C24.7416 20.65 23.85 21 22.7916 21V22.5083C22.7916 23.075 22.1583 23.4167 21.6916 23.1L20.8833 22.5667C20.9583 22.3083 20.9916 22.025 20.9916 21.725V18.3334C20.9916 16.6334 19.8583 15.5 18.1583 15.5H12.5C12.3833 15.5 12.275 15.5084 12.1666 15.5167V13.2084C12.1666 11.0834 13.5833 9.66669 15.7083 9.66669H22.7916C24.9166 9.66669 26.3333 11.0834 26.3333 13.2084Z" stroke="#030303" stroke-width="1.5" stroke-miterlimit="10" stroke-linecap="round" stroke-linejoin="round"/>
<path d="M20.9916 18.3334V21.725C20.9916 22.025 20.9583 22.3083 20.8833 22.5667C20.575 23.7917 19.5583 24.5583 18.1583 24.5583H15.8916L13.375 26.2333C13 26.4917 12.5 26.2167 12.5 25.7667V24.5583C11.65 24.5583 10.9416 24.275 10.45 23.7833C9.94996 23.2833 9.66663 22.575 9.66663 21.725V18.3334C9.66663 16.75 10.65 15.6583 12.1666 15.5167C12.275 15.5083 12.3833 15.5 12.5 15.5H18.1583C19.8583 15.5 20.9916 16.6334 20.9916 18.3334Z" stroke="#030303" stroke-width="1.5" stroke-miterlimit="10" stroke-linecap="round" stroke-linejoin="round"/>
</svg>
