<svg width="120" height="72" viewBox="0 0 120 72" fill="none" xmlns="http://www.w3.org/2000/svg">
<path fill-rule="evenodd" clip-rule="evenodd" d="M34.336 33.32H19.04V3.17603H4V70.984H19.072V40.84H34.336C34.208 39.592 34.112 38.344 34.112 37.064C34.112 35.784 34.208 34.568 34.336 33.32Z" fill="#3772FF"/>
<path fill-rule="evenodd" clip-rule="evenodd" d="M41.664 37.096C41.664 22.536 53.472 10.728 68.032 10.728C70.528 10.728 72.896 11.08 75.2 11.72C75.52 8.16801 76.704 6.15201 78.688 4.90401C75.328 3.78401 71.776 3.20801 68.064 3.20801C50.624 3.20801 36.256 16.392 34.368 33.352H41.696V37.096H41.664Z" fill="#3772FF"/>
<path fill-rule="evenodd" clip-rule="evenodd" d="M97.376 49.7039C97.376 51.5279 97.184 53.2879 96.864 54.9839C99.84 50.2159 101.664 44.6159 101.92 38.6639C100.416 39.3679 98.912 39.8479 97.376 40.0719V49.7039Z" fill="#3772FF"/>
<path fill-rule="evenodd" clip-rule="evenodd" d="M72.48 63.08C74.72 65.736 77.6 67.368 80.736 67.368C87.84 67.368 93.6 59.336 93.6 49.672V43.528C91.104 53.576 82.816 61.32 72.48 63.08Z" fill="#3772FF"/>
<path fill-rule="evenodd" clip-rule="evenodd" d="M78.496 12.872C87.424 16.712 93.792 25.352 94.368 35.528C94.752 35.592 95.104 35.624 95.488 35.624C97.824 35.624 99.968 34.632 101.728 33.352C100.416 21.48 92.992 11.464 82.656 6.50403C79.616 7.46403 78.592 8.80803 78.496 12.872Z" fill="#3772FF"/>
<path fill-rule="evenodd" clip-rule="evenodd" d="M68.1601 63.4639C68.1281 63.4639 68.0961 63.4639 68.0321 63.4639C53.4721 63.4639 41.6641 51.6559 41.6641 37.0959V40.872H34.3361C36.2241 57.832 50.5601 71.0159 68.0321 71.0159C70.7521 71.0159 73.3761 70.6959 75.9041 70.0879C72.8641 68.8719 70.1761 66.5359 68.1601 63.4639Z" fill="#3772FF"/>
<path fill-rule="evenodd" clip-rule="evenodd" d="M87.04 5.416C87.584 5.832 88.128 5.96 88.64 5.96C90.112 5.96 91.328 4.872 91.328 3.528C91.328 2.184 90.112 1 88.64 1C87.552 1 86.752 1.672 86.208 2.472C83.072 3.144 80.512 3.688 78.656 4.904C80.032 5.352 81.344 5.896 82.624 6.504C83.808 6.12 85.248 5.832 87.04 5.416Z" fill="#3772FF"/>
<path fill-rule="evenodd" clip-rule="evenodd" d="M115.872 13.608C115.872 4.904 111.712 3.944 104.736 2.472C104.32 1.672 103.392 1 102.336 1C100.864 1 99.6479 2.216 99.6479 3.528C99.6479 4.872 100.864 5.96 102.336 5.96C103.008 5.96 103.552 5.832 103.936 5.416C110.784 6.888 112.64 7.304 112.64 13.608C112.64 18.568 110.08 25.288 106.208 30.12C105.536 30.12 104.864 30.376 104.48 30.92C103.712 31.72 102.784 32.584 101.728 33.352C101.856 34.6 101.952 35.848 101.952 37.096C101.952 37.608 101.92 38.12 101.92 38.632C104.128 37.608 106.24 36.072 108.224 33.992C108.768 33.448 108.896 32.776 108.768 32.104C113.184 26.632 115.872 19.24 115.872 13.608Z" fill="#3772FF"/>
<path fill-rule="evenodd" clip-rule="evenodd" d="M67.9999 37.736C72.1599 36.936 75.3919 33.16 75.3919 28.616C75.3919 23.528 71.2319 19.368 66.1439 19.368C61.0559 19.368 56.7679 23.528 56.7679 28.616C56.7679 33.16 59.9999 36.936 64.2879 37.736V49.672C64.2879 54.92 65.7599 59.752 68.1919 63.464C69.6639 63.464 71.1039 63.336 72.5439 63.08C69.7919 59.816 68.0639 54.984 68.0639 49.672V37.736H67.9999Z" fill="#3772FF"/>
<path fill-rule="evenodd" clip-rule="evenodd" d="M75.9041 70.088C77.4401 70.696 79.0401 71.016 80.7361 71.016C88.4481 71.016 95.0081 64.2 96.8641 54.984C92.2241 62.44 84.7361 67.976 75.9041 70.088Z" fill="#3772FF"/>
<path fill-rule="evenodd" clip-rule="evenodd" d="M86.656 30.92C86.112 30.376 85.6 30.12 84.928 30.12C81.024 25.288 78.496 18.6 78.496 13.608C78.496 13.352 78.496 13.128 78.496 12.872C77.44 12.424 76.352 12.04 75.2 11.72C75.136 12.296 75.104 12.936 75.104 13.608C75.104 19.24 77.792 26.76 82.208 32.104C82.208 32.776 82.336 33.448 82.88 33.992C86.112 37.48 89.856 39.496 93.6 40.04V43.56C94.112 41.512 94.4 39.336 94.4 37.128C94.4 36.584 94.368 36.072 94.336 35.56C91.136 35.08 88.448 32.84 86.656 30.92Z" fill="#3772FF"/>
</svg>
