<svg width="21" height="20" viewBox="0 0 21 20" fill="none" xmlns="http://www.w3.org/2000/svg">
<path d="M18.8333 5.20835V9.45833C18.8333 10.5167 18.4833 11.4083 17.8583 12.025C17.2417 12.65 16.35 13 15.2917 13V14.5083C15.2917 15.075 14.6583 15.4167 14.1917 15.1L13.3833 14.5667C13.4583 14.3083 13.4917 14.025 13.4917 13.725V10.3334C13.4917 8.63337 12.3583 7.50002 10.6583 7.50002H4.99998C4.88332 7.50002 4.77499 7.50837 4.66666 7.5167V5.20835C4.66666 3.08335 6.08332 1.66669 8.20832 1.66669H15.2917C17.4167 1.66669 18.8333 3.08335 18.8333 5.20835Z" stroke="#3759BF" stroke-width="1.5" stroke-miterlimit="10" stroke-linecap="round" stroke-linejoin="round"/>
<path d="M13.4917 10.3334V13.725C13.4917 14.025 13.4583 14.3083 13.3833 14.5667C13.075 15.7917 12.0583 16.5583 10.6583 16.5583H8.39166L5.87499 18.2333C5.49999 18.4917 4.99998 18.2167 4.99998 17.7667V16.5583C4.14998 16.5583 3.44166 16.275 2.94999 15.7833C2.44999 15.2833 2.16666 14.575 2.16666 13.725V10.3334C2.16666 8.75002 3.14999 7.65835 4.66666 7.51668C4.77499 7.50835 4.88332 7.5 4.99998 7.5H10.6583C12.3583 7.5 13.4917 8.63335 13.4917 10.3334Z" stroke="#3759BF" stroke-width="1.5" stroke-miterlimit="10" stroke-linecap="round" stroke-linejoin="round"/>
</svg>
