<svg width="40" height="40" viewBox="0 0 40 40" fill="none" xmlns="http://www.w3.org/2000/svg">
<rect width="40" height="40" rx="20" fill="#4169E1"/>
<path d="M28.07 16.51L19.51 12.23C13.76 9.35001 11.4 11.71 14.28 17.46L15.15 19.2C15.4 19.71 15.4 20.3 15.15 20.81L14.28 22.54C11.4 28.29 13.75 30.65 19.51 27.77L28.07 23.49C31.91 21.57 31.91 18.43 28.07 16.51ZM24.84 20.75H19.44C19.03 20.75 18.69 20.41 18.69 20C18.69 19.59 19.03 19.25 19.44 19.25H24.84C25.25 19.25 25.59 19.59 25.59 20C25.59 20.41 25.25 20.75 24.84 20.75Z" fill="#F3F3F3"/>
</svg>
