<svg width="21" height="20" viewBox="0 0 21 20" fill="none" xmlns="http://www.w3.org/2000/svg">
<path d="M10.9417 17.0167H5.67499C3.04166 17.0167 2.16666 15.2667 2.16666 13.5083V6.49167C2.16666 3.85834 3.04166 2.98334 5.67499 2.98334H10.9417C13.575 2.98334 14.45 3.85834 14.45 6.49167V13.5083C14.45 16.1417 13.5667 17.0167 10.9417 17.0167Z" stroke="#3759BF" stroke-width="1.5" stroke-linecap="round" stroke-linejoin="round"/>
<path d="M16.7667 14.25L14.45 12.625V7.36665L16.7667 5.74165C17.9 4.94999 18.8333 5.43332 18.8333 6.82499V13.175C18.8333 14.5667 17.9 15.05 16.7667 14.25Z" stroke="#3759BF" stroke-width="1.5" stroke-linecap="round" stroke-linejoin="round"/>
<path d="M10.0833 9.16669C10.7737 9.16669 11.3333 8.60704 11.3333 7.91669C11.3333 7.22633 10.7737 6.66669 10.0833 6.66669C9.39299 6.66669 8.83334 7.22633 8.83334 7.91669C8.83334 8.60704 9.39299 9.16669 10.0833 9.16669Z" stroke="#3759BF" stroke-width="1.5" stroke-linecap="round" stroke-linejoin="round"/>
</svg>
